<svg width="643" height="99" viewBox="0 0 643 99" fill="none" xmlns="http://www.w3.org/2000/svg">
<path d="M43.9349 56.2155L14.8461 44.6732C9.17323 42.5313 5.55222 37.1766 5.55222 31.2269C5.55222 23.2543 12.1907 16.8287 20.2777 16.8287H53.2289L56.6085 11.355H20.2777C9.17323 11.355 0 20.2795 0 31.3459C0 39.4375 4.94872 46.6961 12.7942 49.7899L41.7623 61.2133C47.4352 63.4742 51.0563 68.8289 51.0563 74.7785C51.0563 82.7511 44.4177 89.1767 36.3308 89.1767H3.37962L0 94.6504H36.3308C47.4352 94.6504 56.6085 85.7259 56.6085 74.6595C56.6085 66.568 51.5391 59.3094 43.8142 56.2155H43.9349Z" fill="white"/>
<path d="M102.595 53.5977L138.926 94.6504H146.409L106.699 49.1949L143.874 11.355H136.391L83.645 64.9021V11.355H77.4893V94.6504H83.645V72.7556L102.595 53.5977Z" fill="#8400AD"/>
<path d="M162.342 11.355V94.6504H168.498V11.355H162.342Z" fill="#8400AD"/>
<path d="M197.948 11.355V94.6504H252.746V89.1767H204.104V11.355H197.948Z" fill="#8400AD"/>
<path d="M268.559 11.355V94.6504H323.357V89.1767H274.714V11.355H268.559Z" fill="#8400AD"/>
<path d="M481.119 65.497C487.516 63.7121 492.344 60.4993 495.844 55.9775C499.224 51.5748 500.914 45.9821 500.914 39.4375C500.914 30.6319 497.896 23.7303 491.861 18.7326C485.826 13.8539 477.498 11.355 466.876 11.355H436.581V16.8287H466.876C475.929 16.8287 482.809 18.7326 487.516 22.6594C492.223 26.7052 494.637 32.1789 494.637 39.4375C494.637 46.6961 492.223 52.1698 487.516 56.0966C482.809 60.0233 475.929 62.0462 466.876 62.0462H436.581V94.6504H442.736V67.4009H466.876C469.411 67.4009 472.066 67.1629 475.084 66.806L495.241 94.6504H502.242L481.119 65.497Z" fill="#8400AD"/>
<path d="M636.194 12.7097V96.0052H642.35V12.7097H636.194Z" fill="#8400AD"/>
<path d="M535.869 8V91.2955H541.421V21.9222L611.065 91.2955H618.548L535.869 8Z" fill="white"/>
<path d="M368.265 3.21011C371.378 2.91833 374.952 4.24791 377.16 6.44662C378.689 7.98104 379.765 9.90667 380.272 12.0125C380.685 13.7252 380.564 17.2381 380.564 19.1426L380.565 29.3926C380.984 29.3835 381.402 29.3804 381.821 29.3829C381.69 28.5393 381.778 26.8105 381.777 25.9112L381.776 19.783L381.777 16.2007C381.777 15.4973 381.631 14.1128 382.124 13.6133C382.336 13.3965 382.627 13.2752 382.93 13.2773C384.302 13.2799 384.046 15.0877 384.046 16.0018L384.045 19.0498L384.045 29.392C385.575 29.3655 387.214 29.3733 388.744 29.387C388.643 28.1951 388.73 26.8196 388.726 25.6175C388.726 25.3355 388.884 24.9423 389.142 24.7889C390.566 23.9606 391.085 25.3425 390.99 26.5574C390.922 27.4291 391.086 28.5262 390.948 29.3926C392.509 29.3717 394.094 29.3841 395.658 29.3835C395.607 28.6464 395.638 27.5768 395.638 26.8252L395.644 22.2816C394.411 21.8193 393.289 21.0238 392.745 19.7898C392.286 18.7244 392.262 17.5214 392.68 16.4389C394.288 12.3433 400.147 12.9313 401.052 17.1592C401.234 18.0051 401.147 18.8376 400.825 19.6401C400.262 21.0389 399.196 21.7122 397.863 22.282C397.936 22.7832 397.892 23.3875 397.888 23.9039L397.883 26.3012C397.883 26.831 397.933 29.0237 397.865 29.3824C400.787 29.4321 402.981 31.5615 402.995 34.5054C403.813 34.4368 405.472 34.5031 406.354 34.5076C408.006 33.5322 409.667 32.5714 411.336 31.6251C412.673 30.8513 414.172 29.9431 415.54 29.264C415.457 28.8272 415.415 28.7029 415.423 28.2346C415.434 27.1529 415.882 26.1214 416.664 25.374C418.328 23.8065 420.865 23.9838 422.385 25.6457C423.078 26.4166 423.439 27.4298 423.389 28.4653C423.272 30.9724 420.82 32.7505 418.393 32.1031C417.695 31.9169 417.157 31.6497 416.669 31.1025C416.11 31.5461 407.593 36.4589 407.048 36.615C406.358 36.8128 403.845 36.7167 402.99 36.7072C403.038 38.2063 403.001 39.9063 403.004 41.4217C403.998 41.4025 404.994 41.4103 405.988 41.4004C406.522 41.395 407.091 41.3732 407.51 41.7672C407.722 41.9666 407.85 42.2754 407.835 42.5643C407.765 43.9131 406.069 43.6583 405.141 43.6691C404.378 43.6761 403.707 43.6757 402.99 43.6681C403.037 45.1421 403.001 46.8534 403.001 48.3416L411.998 48.3326C413.881 48.3327 415.765 48.3343 417.647 48.3231C418.076 48.3206 418.549 48.3683 418.843 48.7059C419.016 48.9109 419.198 49.2319 419.157 49.5124C419.039 50.3089 418.481 50.5552 417.76 50.5726C416.937 50.5925 416.139 50.5767 415.327 50.5761L410.442 50.5744H405.574C404.794 50.5749 403.729 50.6181 402.98 50.5626C403.048 51.993 402.999 53.8483 403.001 55.3026L406.231 55.2846C408.611 55.2923 408.288 57.731 405.953 57.5088C405.051 57.423 403.916 57.5927 402.975 57.486C403.055 58.7765 403.004 60.8773 402.991 62.2007C403.492 62.1444 405.132 62.1782 405.732 62.1873C407.161 62.2088 408.728 62.1378 410.133 62.1937C411.063 59.4844 413.504 58.1127 416.254 59.3364C418.384 60.3348 419.428 63.0845 418.307 65.1854C416.364 68.8288 411.388 68.3242 410.122 64.3843C409.376 64.42 408.409 64.3957 407.65 64.3961L402.993 64.3982C402.998 65.2289 402.886 65.9998 402.472 66.7342C401.5 68.5877 399.91 69.4163 397.861 69.541C398.033 70.5791 397.773 71.9504 397.984 72.9756C398.153 73.5466 398.554 74.0114 398.839 74.5248C399.891 76.4188 401.011 78.2758 402.061 80.1711C402.421 80.8227 402.862 81.4291 403.13 82.1294C403.322 82.0788 403.518 82.0409 403.716 82.0159C404.716 81.8978 405.807 82.2083 406.59 82.8429C407.423 83.5129 407.953 84.489 408.061 85.5527C408.163 86.5897 407.855 87.6255 407.202 88.4376C406.526 89.2658 405.548 89.7898 404.484 89.8936C400.828 90.2225 398.758 86.0181 401.205 83.2012C401.049 82.7927 400.309 81.6374 400.053 81.1864L396.759 75.4533C396.487 74.9782 395.751 73.8724 395.704 73.3838C395.591 72.2134 395.647 70.6886 395.659 69.5033C395.393 69.5255 395.114 69.5311 394.847 69.5249C393.55 69.494 392.22 69.5781 390.928 69.5149C391.078 70.3347 390.963 71.3574 391.003 72.2113C391.037 72.9362 391.041 73.4629 390.578 74.0735C390.074 74.7389 388.862 74.2168 388.792 73.5532C388.656 72.265 388.712 70.8233 388.737 69.5097C387.714 69.5727 386.623 69.4903 385.592 69.5307C385.094 69.5501 384.524 69.5452 384.03 69.5114C384.074 70.5101 384.049 71.6664 384.049 72.6755L384.049 78.2205L384.052 82.3234C384.053 83.0844 384.066 83.8645 384.031 84.6232C384.02 84.9463 383.914 85.1704 383.661 85.3723C383.085 85.8332 382.459 85.7617 382.008 85.1735C381.834 84.9475 381.815 84.6478 381.808 84.3687C381.78 83.2395 381.793 82.1057 381.793 80.9757L381.794 74.728L381.79 71.3597C381.788 70.8972 381.751 69.9211 381.82 69.5079C381.343 69.5526 381.022 69.5493 380.549 69.512C380.596 70.5521 380.569 71.753 380.569 72.8037L380.57 78.1948L380.57 82.3771C380.57 83.8359 380.623 85.3042 380.318 86.7386C379.951 88.4699 379.058 90.3497 377.881 91.688C375.824 94.0551 372.905 95.5004 369.775 95.7017C366.767 95.8632 363.818 94.8245 361.575 92.8139C359.839 91.2578 358.046 88.4198 357.923 86.0593C357.581 86.1846 357.23 86.2849 356.874 86.36C350.223 87.7605 343.341 83.029 342.1 76.4008C341.633 73.9051 341.767 71.5444 342.722 69.1711C342.902 68.7244 343.137 68.1652 343.403 67.7741C342.394 67.4784 340.977 66.8881 340.03 66.4122C335.526 64.1337 332.111 60.16 330.536 55.3646C328.931 50.5403 329.333 45.2734 331.651 40.7482C333.725 36.6589 337.206 33.4563 341.454 31.7297C342.009 31.5012 342.788 31.2628 343.372 31.0716C342.958 30.3641 342.585 29.4344 342.349 28.6509C341.381 25.4113 341.759 21.9183 343.399 18.9615C346.102 13.9905 351.513 11.6103 357.029 12.5616C357.425 12.63 357.525 12.6173 357.901 12.8218C358.127 10.8556 359.117 8.78555 360.383 7.27729C362.46 4.80459 365.058 3.48451 368.265 3.21011ZM344.899 69.9107C343.88 72.4947 343.797 75.4265 344.91 77.995C346.05 80.6431 348.21 82.7196 350.901 83.755C352.414 84.351 354.958 84.5996 356.546 84.2106C357.282 84.0304 358.193 83.6933 358.866 83.5628C359.907 83.8517 359.989 84.3078 360.08 85.3003C360.656 91.5843 367.466 95.4846 373.259 92.5303C375.475 91.415 377.149 89.4541 377.903 87.0903C378.422 85.4728 378.321 83.7498 378.32 82.0654L378.316 78.1321L378.315 69.2556L378.316 40.2563L378.317 23.0147L378.318 17.4172C378.319 14.8953 378.513 12.7217 377.285 10.3926C375.614 7.22609 372.078 5.10424 368.455 5.48154C365.714 5.75584 363.793 6.75273 362.04 8.8965C361.024 10.1274 360.366 11.6141 360.138 13.1939C359.984 14.336 360.176 15.0874 358.827 15.4274C358.001 15.1714 357.147 14.8677 356.289 14.7211C348.377 13.3691 341.989 21.1758 344.734 28.6724C344.993 29.3797 345.397 30.0096 345.667 30.6912C346.37 30.4605 347.238 30.44 347.959 30.3954C348.635 30.3534 349.59 30.3755 349.778 31.1806C350.146 32.7598 348.291 32.595 347.402 32.66C346.707 32.7153 346.016 32.8106 345.331 32.946C340.713 33.8855 336.7 36.718 334.268 40.7552C329.417 48.7369 332.092 59.3065 340.131 63.9889C341.097 64.5515 342.061 65.0688 343.121 65.4336C343.578 65.597 344.299 65.7643 344.701 65.9414C346.673 63.3695 349.692 61.7853 352.863 61.3182C353.386 61.241 354.439 61.1724 354.864 61.2948C355.626 61.514 355.979 62.4981 355.384 63.0859C354.736 63.7261 353.348 63.4415 352.505 63.6948C348.837 64.5363 346.436 66.5774 344.899 69.9107ZM380.565 61.194C381.349 61.1285 382.964 61.1867 383.824 61.1869L390.57 61.1865C391.348 61.1869 392.127 61.1944 392.905 61.1966C393.497 61.1983 393.759 61.1935 394.232 60.8096C394.385 60.5904 394.541 60.409 394.554 60.1449C394.575 59.68 394.566 59.1995 394.565 58.7345L394.561 55.9975L394.56 47.0974L394.561 41.3386C394.563 40.6123 394.664 39.4436 394.536 38.7727C394.485 38.5022 394.259 38.1191 394.012 37.9841C393.246 37.5653 382.374 37.9621 380.543 37.802C380.601 38.733 380.568 39.9309 380.568 40.8784L380.567 46.1847L380.565 61.194ZM419.309 26.6123C418.369 26.6924 417.672 27.5186 417.75 28.4589C417.828 29.3992 418.653 30.0986 419.594 30.0218C420.536 29.945 421.238 29.1175 421.159 28.1748C421.081 27.232 420.252 26.5321 419.309 26.6123ZM414.419 61.2708C413.252 61.2638 412.304 62.2078 412.305 63.374C412.306 64.5399 413.257 65.482 414.423 65.4725C415.578 65.4632 416.508 64.5241 416.507 63.3695C416.506 62.215 415.573 61.2776 414.419 61.2708ZM380.572 35.6209L389.53 35.6172C390.961 35.6159 392.647 35.5478 394.055 35.6911C394.517 35.7379 395.418 36.2141 395.741 36.5593C396.708 37.5932 396.811 38.3504 396.818 39.6801L396.815 54.0819L396.818 58.1964C396.818 59.7071 397.016 61.2165 395.816 62.3625C395.126 63.0219 394.271 63.345 393.32 63.3705C391.884 63.409 390.442 63.386 389.006 63.3833L380.719 63.3974C380.664 63.397 380.614 63.3929 380.559 63.3891C380.569 64.6559 380.605 66.1297 380.565 67.3813C381.471 67.304 383.446 67.3763 384.452 67.3746L394.065 67.3728L396.59 67.3784C397.82 67.3837 398.947 67.4902 399.91 66.5487C400.303 66.1643 400.629 65.5918 400.703 65.0392C400.796 63.8756 400.758 62.5826 400.756 61.4098L400.752 54.6206L400.752 41.1471C400.752 38.9755 400.756 36.8039 400.755 34.6323C400.755 33.7057 400.547 33.045 399.879 32.3883C398.976 31.501 397.837 31.6182 396.671 31.6203L394.165 31.6257L384.984 31.6269L382.108 31.6277C381.623 31.6284 381.015 31.6551 380.543 31.6143C380.607 32.619 380.594 34.5752 380.572 35.6209ZM403.781 84.3562C403.177 84.4795 402.685 84.9189 402.494 85.5061C402.304 86.0933 402.444 86.7376 402.862 87.1926C403.279 87.6473 403.909 87.8424 404.51 87.7032C405.423 87.4919 405.997 86.5858 405.798 85.6701C405.598 84.7541 404.7 84.1686 403.781 84.3562ZM396.652 15.9272C395.489 16.0066 394.614 17.0185 394.703 18.1807C394.792 19.3428 395.811 20.2096 396.973 20.1112C398.12 20.0137 398.975 19.009 398.887 17.8603C398.799 16.7116 397.802 15.8487 396.652 15.9272Z" fill="#F97316"/>
<path d="M368.219 59.2195C369.68 59.2118 369.755 61.0348 369.876 62.0984C370.031 63.4589 369.812 65.553 368.909 66.6432C370.124 67.1333 371.268 67.7832 372.311 68.5756C373.842 69.7354 375.117 71.1434 375.432 73.2116C375.591 74.2605 375.498 77.5216 373.372 76.1599C372.859 75.8312 373.222 74.5214 373.187 73.8798C373.098 72.2148 372.102 71.3863 370.964 70.3344C370.417 70.0262 369.813 69.5579 369.235 69.2595C368.63 68.9472 368.067 68.7289 367.473 68.3847C366.924 68.9619 365.645 69.6942 364.795 70.0488C363.543 70.5291 361.709 71.3586 360.362 71.143C359.882 71.0661 359.522 70.1128 359.789 69.6408C360.207 68.8991 361.919 68.6928 362.716 68.4265C365.937 67.3816 368.242 65.4018 367.54 61.7322C367.342 60.6962 366.917 59.6704 368.219 59.2195Z" fill="#F97316"/>
<path d="M343.245 42.7899C343.297 42.7821 343.35 42.7763 343.403 42.7728C345.057 42.6479 346.166 47.0861 346.223 48.3296C346.704 48.4679 347.136 48.6736 347.591 48.8832C349.438 49.7336 351.162 51.2745 351.331 53.4225C351.383 54.0813 351.418 54.9557 350.972 55.492C350.594 55.9468 349.792 55.9909 349.358 55.5937C348.958 55.2153 349.069 54.3593 349.061 53.8411C349.046 52.9238 348.631 52.4021 347.993 51.7892C347.453 51.2658 346.278 50.7621 345.613 50.437C345.202 51.0993 344.525 51.6432 343.817 51.9162C342.731 52.3347 339.806 53.2736 339.33 51.6401C338.926 50.2533 340.834 50.3119 341.65 50.1982C342.019 50.1454 342.381 50.0546 342.731 49.927C343.112 49.7864 343.725 49.4691 343.838 49.0746C344.276 47.4388 343.222 45.7976 342.568 44.3692C342.23 43.6318 342.523 43.0813 343.245 42.7899Z" fill="#F97316"/>
<path d="M365.057 18.613C367.369 18.6228 366.001 21.9029 365.539 23.0501C365.385 23.43 365.026 23.9302 364.788 24.2619C366.253 25.8375 367.828 27.943 367.565 30.2813C367.438 31.4169 366.055 33.5669 364.809 32.0597C364.278 31.4167 365.186 30.4708 365.4 29.6473L365.203 28.8209C364.865 27.7667 363.783 26.5218 363.124 25.6511C363.031 25.7148 362.933 25.7701 362.83 25.8163C361.734 26.3167 358.081 27.1659 357.482 25.7287C357.37 25.4564 357.375 25.1505 357.494 24.8816C357.845 24.0789 358.491 24.2336 359.172 24.2572C361.68 24.3444 363.537 23.3194 363.941 20.7035C364.077 19.8183 364.115 18.9879 365.057 18.613Z" fill="#F97316"/>
<path d="M370.169 42.5938C370.818 42.6742 371.504 43.2214 371.329 43.9374C371.208 44.3249 370.966 44.7685 370.786 45.1339C369.191 48.3719 368.486 52.3406 372.076 54.5072C372.626 54.8858 373.66 55.171 373.975 55.7919C374.363 56.5582 373.628 57.1266 373.037 57.3794C372.543 57.4006 371.387 56.7303 370.968 56.4646C369.166 55.3205 367.856 53.8908 367.394 51.7275C366.78 48.8596 367.778 45.8462 369.164 43.3343C369.397 42.912 369.706 42.6902 370.169 42.5938Z" fill="#F97316"/>
<path d="M360.265 34.7286C361.222 34.6358 363.114 34.706 362.282 36.4269C361.952 37.1098 360.526 36.8561 359.847 37.027C359.192 37.192 358.42 37.3244 357.833 37.7641C356.71 38.5501 356.02 39.7569 355.619 41.0387C355.396 41.7537 355.357 42.4355 354.928 43.0525C354.636 43.2813 354.502 43.3433 354.148 43.4497C352.761 43.195 352.939 42.1903 353.212 41.1212C354.148 37.4644 356.388 35.0003 360.265 34.7286Z" fill="#F97316"/>
<path d="M369.107 79.3455C370.138 79.2193 371.98 79.2806 372.973 79.6135C373.068 79.6456 373.336 79.8952 373.424 79.9765C373.519 80.2388 373.555 80.4407 373.611 80.7108C373.584 80.787 373.554 80.862 373.522 80.9359C373.008 82.1073 371.851 81.5608 370.882 81.5467C369.177 81.5218 366.913 81.4239 366.101 83.2593C365.894 83.8444 365.963 84.5142 365.645 85.0214C365.05 86.0856 363.633 85.5713 363.621 84.4885C363.581 80.9578 366.156 79.6346 369.107 79.3455Z" fill="#F97316"/>
<path d="M352.852 72.7104C354.751 72.8245 353.691 74.8531 353.502 75.8709C353.325 76.818 353.166 78.164 354.159 78.709C354.816 79.0695 356.143 79.0795 356.404 79.9121C356.574 80.7316 355.986 81.2022 355.313 81.3561C351.158 80.8809 350.468 77.6688 351.581 74.1643C351.835 73.3652 351.972 72.9173 352.852 72.7104Z" fill="#F97316"/>
</svg>
