<svg width="55" height="55" viewBox="0 0 55 55" fill="none" xmlns="http://www.w3.org/2000/svg">
<path d="M44.1968 30.8141C43.3065 26.7542 39.4024 23.5842 34.509 23.0109C34.4898 23.0087 34.4687 23.0081 34.4489 23.0048C34.2885 22.9876 34.1288 22.972 33.9671 22.9592C33.9665 22.9726 33.9612 22.9864 33.9612 22.9998C33.9586 23.0398 33.9506 23.0787 33.9454 23.1192C33.915 23.3453 33.8352 23.5648 33.7104 23.7764C32.8763 25.542 30.2042 28.8669 28.5913 30.8014H43.8959C43.9975 30.8014 44.0971 30.8064 44.1968 30.8141Z" fill="#111111"/>
<path d="M28.2004 26.8786C28.6689 26.6764 29.0728 26.3408 29.3315 25.952C29.5176 25.6725 29.6318 25.367 29.6318 25.0553C29.6318 25.0553 28.4333 25.5025 27.2098 25.5025C27.1405 25.5025 27.0706 25.502 27.0006 25.4986C26.9313 25.502 26.8614 25.5025 26.7914 25.5025C25.5679 25.5025 24.3701 25.0553 24.3701 25.0553C24.3701 25.367 24.4836 25.6725 24.6704 25.952C24.9291 26.3408 25.3323 26.6758 25.8015 26.8786L25.4762 30.8013H28.5264L28.2004 26.8786Z" fill="#111111"/>
<path d="M25.4094 30.8014C23.7952 28.8675 21.1231 25.5425 20.2903 23.7764C20.1649 23.5648 20.0844 23.3453 20.0547 23.1192C20.0487 23.0787 20.0415 23.0398 20.0388 22.9998C20.0382 22.9864 20.0329 22.9726 20.0329 22.9592C19.8705 22.972 19.7102 22.9876 19.5498 23.0048C19.53 23.0081 19.5089 23.0087 19.4904 23.0109C14.5977 23.5842 10.6935 26.7542 9.80322 30.8141C9.90221 30.8058 10.0025 30.8014 10.1035 30.8014H25.4094Z" fill="#111111"/>
<path d="M14.9897 7.05494L15.8001 7.3505L15.7322 7.80883C15.4213 7.85327 15.1844 8.08049 15.1844 8.35437C15.1844 8.60104 15.3751 8.80993 15.6404 8.88104L15.1481 14.6821C15.1283 14.9237 15.1857 15.3104 15.2768 15.5404L15.6754 16.5482C15.7671 16.7793 15.915 16.7793 16.006 16.5482L16.406 15.5404C16.4977 15.3099 16.5551 14.9237 16.534 14.6821L16.0423 8.88104C16.3056 8.80937 16.4977 8.60104 16.4977 8.35437C16.4977 8.07993 16.2614 7.85327 15.9499 7.80883L15.8866 7.38272L17.7568 8.06493L18.6735 8.39882V11.2099C18.5692 11.5282 18.4801 11.8516 18.4227 12.1854C18.3567 12.5654 18.3237 12.956 18.3237 13.3515C18.3237 13.5127 18.3323 13.6726 18.3422 13.831C18.3567 14.0632 18.3838 14.2921 18.4227 14.5176C18.4293 14.5871 18.4359 14.6554 18.4438 14.7243C18.9929 19.9331 22.614 23.9586 26.9999 23.9586C31.3858 23.9586 35.0082 19.9331 35.5546 14.7226C35.5626 14.6537 35.5698 14.5854 35.5758 14.516C35.6147 14.2899 35.6404 14.0615 35.6563 13.8293C35.6675 13.671 35.6741 13.511 35.6741 13.3499C35.6741 12.9549 35.6411 12.5638 35.5758 12.1838C35.5183 11.8504 35.4286 11.5271 35.325 11.2093V8.3966L36.2416 8.06327L39.0101 7.05383C39.7347 6.78995 39.7347 6.35884 39.0101 6.0944L28.3165 2.19833C27.5925 1.93389 26.4086 1.93389 25.684 2.19833L14.9897 6.09551C14.2664 6.35995 14.2664 6.79106 14.9897 7.05494ZM20.5715 12.066L21.7033 12.4782L25.684 13.9293C26.4086 14.1938 27.5932 14.1938 28.3165 13.9293L32.2979 12.4782L33.429 12.0654C33.6553 13.4893 33.3029 15.2554 33.3029 15.2554C33.755 14.9899 34.1688 14.8526 34.506 14.7815C34.0091 19.3326 30.8381 22.8414 26.9999 22.8414C23.1624 22.8414 19.9914 19.3326 19.4931 14.7815C19.8304 14.8526 20.2455 14.9899 20.6969 15.2554C20.6969 15.2554 20.3451 13.4893 20.5715 12.066Z" fill="#111111"/>
<path d="M42.3186 50.925H11.6811C11.3287 50.925 11.043 51.1662 11.043 51.4623C11.043 51.7589 11.3287 52 11.6811 52H42.3186C42.671 52 42.9574 51.7589 42.9574 51.4623C42.9574 51.1662 42.671 50.925 42.3186 50.925Z" fill="#111111"/>
<path d="M44.1973 31.5307C44.0983 31.5224 43.998 31.5179 43.8963 31.5179H28.5911H28.5251H25.4749H25.4096H10.1037C10.0027 31.5179 9.9024 31.5229 9.8034 31.5307C8.23276 31.6579 7 32.7746 7 34.1301V34.1912L7.01254 34.2518L9.81726 47.9455C9.85884 49.3555 11.2348 50.4922 12.9203 50.4922H41.0804C42.7652 50.4922 44.1412 49.3555 44.1827 47.9455L46.9868 34.2518L47 34.1912V34.1301C47 32.7757 45.7672 31.6591 44.1973 31.5307ZM41.0804 49.7761H12.9203C11.6763 49.7761 10.6673 48.9272 10.6673 47.88L7.85066 34.1301C7.85066 33.0829 8.8597 32.234 10.1037 32.234H43.8957C45.1396 32.234 46.148 33.0829 46.148 34.1301L43.3321 47.88C43.3327 48.9272 42.3244 49.7761 41.0804 49.7761Z" fill="#111111"/>
<path d="M27.0001 41.8923C27.7374 41.8923 28.3351 41.3891 28.3351 40.7684C28.3351 40.1477 27.7374 39.6445 27.0001 39.6445C26.2628 39.6445 25.665 40.1477 25.665 40.7684C25.665 41.3891 26.2628 41.8923 27.0001 41.8923Z" fill="#111111"/>
</svg>
