<svg width="439" height="99" viewBox="0 0 439 99" fill="none" xmlns="http://www.w3.org/2000/svg">
<path d="M126.293 62.1549C124.069 65.0905 121.13 66.7607 118.002 66.7607C111.52 66.7607 106.281 59.6749 106.281 51.0202C106.281 42.3148 111.52 35.2797 118.002 35.2797C121.13 35.2797 124.069 36.8993 126.293 39.8854C126.519 40.1891 126.933 40.1891 127.197 39.8854C127.423 39.5311 127.423 38.9744 127.197 38.6707C124.71 35.3809 121.469 33.5588 118.002 33.5588C110.841 33.5588 105 41.3532 105 51.0202C105 60.6366 110.841 68.4309 118.002 68.4309C121.469 68.4309 124.71 66.6595 127.197 63.319C127.423 63.0154 127.423 62.4586 127.197 62.1549C126.933 61.8007 126.519 61.8007 126.293 62.1549Z" fill="#2D8AAE"/>
<path d="M147.886 33.5588C140.726 33.5588 134.885 41.4038 134.885 51.0202C134.885 60.6366 140.726 68.4309 147.886 68.4309C155.047 68.4309 160.888 60.6366 160.888 51.0202C160.888 41.3532 155.047 33.5588 147.886 33.5588ZM136.166 51.0202C136.166 42.3148 141.404 35.2797 147.886 35.2797C154.331 35.2797 159.607 42.3148 159.607 51.0202C159.607 59.6749 154.331 66.7607 147.886 66.7607C141.404 66.7607 136.166 59.6749 136.166 51.0202Z" fill="#2D8AAE"/>
<path d="M189.191 33.5588C188.814 33.5588 188.55 33.9131 188.55 34.4193V55.5753C188.55 61.75 184.819 66.7607 180.222 66.7607C175.662 66.7607 171.931 61.75 171.931 55.5753V34.4193C171.931 33.9131 171.629 33.5588 171.29 33.5588C170.951 33.5588 170.649 33.9131 170.649 34.4193V55.5753C170.649 62.6611 174.946 68.4309 180.222 68.4309C185.535 68.4309 189.832 62.6611 189.832 55.5753V34.4193C189.832 33.9131 189.53 33.5588 189.191 33.5588Z" fill="#2D8AAE"/>
<path d="M201.853 33.5588C201.513 33.5588 201.212 33.9131 201.212 34.4193V67.6211C201.212 68.0766 201.513 68.4309 201.853 68.4309C202.192 68.4309 202.493 68.0766 202.493 67.6211V34.4193C202.493 33.9131 202.192 33.5588 201.853 33.5588ZM204.453 52.4373C204.453 52.8928 204.754 53.2471 205.094 53.2471H208.372L216.173 68.0766C216.286 68.3297 216.512 68.4309 216.701 68.4309C216.814 68.4309 216.965 68.3803 217.078 68.2791C217.342 68.026 217.417 67.4693 217.228 67.115L209.955 53.2471H210.332C214.364 53.2471 217.681 48.8438 217.681 43.4283C217.681 37.9621 214.364 33.5588 210.332 33.5588H205.094C204.754 33.5588 204.453 33.9131 204.453 34.4193C204.453 34.8748 204.754 35.2797 205.094 35.2797H210.332C213.686 35.2291 216.399 38.9238 216.399 43.4283C216.399 47.8822 213.686 51.5769 210.332 51.5769H205.094C204.754 51.5769 204.453 51.9312 204.453 52.4373Z" fill="#2D8AAE"/>
<path d="M235.205 49.35C231.436 47.6291 228.195 46.1108 228.195 41.9099C228.195 35.887 232.943 35.2797 234.979 35.2797C239.463 35.2797 241.988 38.8732 242.026 38.9238C242.252 39.2781 242.629 39.2781 242.893 38.9744C243.156 38.6707 243.194 38.114 242.968 37.7597C242.855 37.6078 240.066 33.5588 234.979 33.5588C229.929 33.5588 226.951 36.6462 226.951 41.9099C226.951 47.3255 230.908 49.1981 234.79 50.9696C238.785 52.8422 242.591 54.6137 242.591 60.0292C242.591 64.3819 238.822 66.7607 235.242 66.7607C230.532 66.7607 227.215 62.4586 227.178 62.408C226.914 62.1043 226.499 62.1043 226.273 62.408C226.009 62.7623 226.009 63.319 226.273 63.6227C226.424 63.8252 229.966 68.4309 235.242 68.4309C240.895 68.4309 243.872 64.1794 243.872 60.0292C243.872 53.399 239.275 51.2732 235.205 49.35Z" fill="#2D8AAE"/>
<path d="M254.35 35.2797H268.821C269.16 35.2797 269.462 34.8748 269.462 34.4193C269.462 33.9131 269.16 33.5588 268.821 33.5588H254.35C254.01 33.5588 253.709 33.9131 253.709 34.4193C253.709 34.8748 254.01 35.2797 254.35 35.2797ZM253.709 67.6211C253.709 68.0766 254.01 68.4309 254.35 68.4309H268.821C269.16 68.4309 269.462 68.0766 269.462 67.6211C269.462 67.115 269.16 66.7607 268.821 66.7607H254.35C254.01 66.7607 253.709 67.115 253.709 67.6211ZM253.709 63.2178C253.709 63.7239 254.01 64.0782 254.35 64.0782C254.689 64.0782 254.99 63.7239 254.99 63.2178V51.3239H268.557C268.896 51.3239 269.198 50.919 269.198 50.4634C269.198 50.0079 268.896 49.603 268.557 49.603H254.99V38.7719C254.99 38.3164 254.689 37.9115 254.35 37.9115C254.01 37.9115 253.709 38.3164 253.709 38.7719V63.2178Z" fill="#2D8AAE"/>
<path d="M279.411 33.5588C279.072 33.5588 278.771 33.9131 278.771 34.4193V67.6211C278.771 68.0766 279.072 68.4309 279.411 68.4309C279.75 68.4309 280.052 68.0766 280.052 67.6211V34.4193C280.052 33.9131 279.75 33.5588 279.411 33.5588ZM282.012 52.4373C282.012 52.8928 282.313 53.2471 282.652 53.2471H287.891C291.923 53.2977 295.239 48.8438 295.239 43.4283C295.239 37.9621 291.923 33.5588 287.891 33.5588H282.652C282.313 33.5588 282.012 33.9131 282.012 34.4193C282.012 34.8748 282.313 35.2797 282.652 35.2797H287.891C291.245 35.2291 293.958 38.9238 293.958 43.4283C293.958 47.8822 291.245 51.5769 287.891 51.5769H282.652C282.313 51.5769 282.012 51.9312 282.012 52.4373Z" fill="#F7F5F0"/>
<path d="M323.466 67.2667L312.99 33.7105C312.952 33.5587 312.914 33.5081 312.876 33.4069C312.876 33.3562 312.839 33.3562 312.839 33.3562C312.65 33.002 312.311 32.9007 312.047 33.1032C311.897 33.2044 311.821 33.3562 311.746 33.5081C311.633 33.913 301.194 67.2667 301.194 67.2667C301.081 67.7222 301.231 68.1777 301.533 68.3802C301.872 68.5826 302.249 68.3802 302.362 67.9246L312.349 36.0387L322.298 67.9246C322.411 68.2789 322.637 68.4308 322.901 68.4308C322.976 68.4308 323.052 68.4308 323.127 68.3802C323.466 68.1777 323.617 67.7222 323.466 67.2667ZM307.337 58.1564C307.337 58.6625 307.638 59.0168 307.977 59.0168H316.683C317.06 59.0168 317.323 58.6625 317.323 58.1564C317.323 57.7009 317.06 57.3466 316.683 57.3466H307.977C307.638 57.3466 307.337 57.7009 307.337 58.1564Z" fill="#F7F5F0"/>
<path d="M332.85 33.5588C332.51 33.5588 332.209 33.9131 332.209 34.4193V67.6211C332.209 68.0766 332.51 68.4309 332.85 68.4309C333.189 68.4309 333.49 68.0766 333.49 67.6211V34.4193C333.49 33.9131 333.189 33.5588 332.85 33.5588ZM335.45 67.6211C335.45 68.0766 335.751 68.4309 336.091 68.4309H345.663C346.002 68.4309 346.304 68.0766 346.304 67.6211C346.304 67.115 346.002 66.7607 345.663 66.7607H336.091C335.751 66.7607 335.45 67.115 335.45 67.6211Z" fill="#F7F5F0"/>
<path d="M391.112 33.5588H351.692C351.353 33.5588 351.052 33.9131 351.052 34.4193C351.052 34.8748 351.353 35.2797 351.692 35.2797H391.112C391.451 35.2797 391.715 34.8748 391.715 34.4193C391.715 33.9131 391.451 33.5588 391.112 33.5588ZM351.052 67.6211C351.052 68.0766 351.353 68.4309 351.692 68.4309H366.164C366.503 68.4309 366.805 68.0766 366.805 67.6211C366.805 67.115 366.503 66.7607 366.164 66.7607H351.692C351.353 66.7607 351.052 67.115 351.052 67.6211ZM351.052 50.4634C351.052 50.919 351.353 51.3239 351.692 51.3239H365.9C366.239 51.3239 366.541 50.919 366.541 50.4634C366.541 50.0079 366.239 49.603 365.9 49.603H351.692C351.353 49.603 351.052 50.0079 351.052 50.4634ZM381.05 67.6211C381.05 68.0766 381.351 68.4309 381.69 68.4309C382.067 68.4309 382.331 68.0766 382.331 67.6211V38.9744C382.331 38.4683 382.067 38.114 381.69 38.114C381.351 38.114 381.05 38.4683 381.05 38.9744V67.6211Z" fill="#F7F5F0"/>
<path d="M414.741 33.5588H395.936C395.597 33.5588 395.295 33.9131 395.295 34.4193C395.295 34.8748 395.597 35.2797 395.936 35.2797H414.741C415.081 35.2797 415.344 34.8748 415.344 34.4193C415.344 33.9131 415.081 33.5588 414.741 33.5588ZM404.679 67.6211C404.679 68.0766 404.981 68.4309 405.32 68.4309C405.697 68.4309 405.961 68.0766 405.961 67.6211V38.7719C405.961 38.3164 405.697 37.9115 405.32 37.9115C404.981 37.9115 404.679 38.3164 404.679 38.7719V67.6211Z" fill="#F7F5F0"/>
<path d="M423.07 35.2797H437.541C437.88 35.2797 438.182 34.8748 438.182 34.4193C438.182 33.9131 437.88 33.5588 437.541 33.5588H423.07C422.731 33.5588 422.429 33.9131 422.429 34.4193C422.429 34.8748 422.731 35.2797 423.07 35.2797ZM422.429 67.6211C422.429 68.0766 422.731 68.4309 423.07 68.4309H437.541C437.88 68.4309 438.182 68.0766 438.182 67.6211C438.182 67.115 437.88 66.7607 437.541 66.7607H423.07C422.731 66.7607 422.429 67.115 422.429 67.6211ZM422.429 63.2178C422.429 63.7239 422.731 64.0782 423.07 64.0782C423.409 64.0782 423.711 63.7239 423.711 63.2178V51.3239H437.277C437.617 51.3239 437.918 50.919 437.918 50.4634C437.918 50.0079 437.617 49.603 437.277 49.603H423.711V38.7719C423.711 38.3164 423.409 37.9115 423.07 37.9115C422.731 37.9115 422.429 38.3164 422.429 38.7719V63.2178Z" fill="#F7F5F0"/>
<path d="M41.2645 3.21011C44.3776 2.91833 47.9525 4.24791 50.1598 6.44662C51.6885 7.98104 52.7654 9.90667 53.2722 12.0125C53.6854 13.7252 53.5635 17.2381 53.5635 19.1426L53.5649 29.3926C53.9835 29.3835 54.4021 29.3804 54.8208 29.383C54.6899 28.5393 54.7778 26.8105 54.7775 25.9112L54.7763 19.783L54.7769 16.2007C54.7771 15.4973 54.6311 14.1128 55.1236 13.6133C55.3359 13.3965 55.6271 13.2752 55.9305 13.2773C57.3018 13.2799 57.0458 15.0877 57.0458 16.0018L57.0452 19.0498L57.0454 29.392C58.5754 29.3655 60.2138 29.3733 61.7436 29.387C61.6427 28.1951 61.7299 26.8196 61.7264 25.6175C61.7256 25.3355 61.8838 24.9423 62.1415 24.7889C63.566 23.9606 64.0848 25.3425 63.9903 26.5574C63.9224 27.4291 64.0858 28.5262 63.9477 29.3926C65.5095 29.3717 67.0944 29.3841 68.658 29.3835C68.6069 28.6464 68.6377 27.5768 68.6382 26.8252L68.6438 22.2816C67.411 21.8193 66.2889 21.0238 65.745 19.7898C65.2856 18.7244 65.2622 17.5214 65.6796 16.4389C67.2882 12.3433 73.1466 12.9313 74.0525 17.1592C74.2337 18.0051 74.1472 18.8376 73.8245 19.6401C73.2622 21.0389 72.1958 21.7122 70.8634 22.282C70.9363 22.7832 70.8924 23.3875 70.888 23.9039L70.8831 26.3012C70.8829 26.831 70.9326 29.0237 70.8648 29.3824C73.787 29.4321 75.9811 31.5615 75.9952 34.5054C76.8129 34.4368 78.4725 34.5031 79.3544 34.5076C81.0065 33.5322 82.667 32.5714 84.3357 31.6251C85.6728 30.8513 87.1717 29.9431 88.5395 29.264C88.4566 28.8272 88.415 28.7029 88.4228 28.2346C88.4342 27.1529 88.8818 26.1214 89.6639 25.374C91.328 23.8065 93.8651 23.9838 95.3854 25.6457C96.0784 26.4166 96.4392 27.4298 96.3894 28.4653C96.2718 30.9724 93.8204 32.7505 91.3928 32.1031C90.6947 31.9169 90.157 31.6497 89.6686 31.1025C89.1102 31.5461 80.5927 36.4589 80.0478 36.615C79.3577 36.8128 76.8454 36.7167 75.9901 36.7072C76.0375 38.2063 76.001 39.9063 76.0045 41.4217C76.9981 41.4026 77.9943 41.4103 78.988 41.4004C79.5222 41.395 80.0913 41.3732 80.5097 41.7672C80.7216 41.9666 80.8502 42.2754 80.8351 42.5643C80.7651 43.9131 79.0686 43.6583 78.1413 43.6691C77.3785 43.6761 76.7067 43.6757 75.9898 43.6681C76.0371 45.1421 76.0006 46.8534 76.0006 48.3416L84.9982 48.3326C86.8805 48.3327 88.7648 48.3343 90.6466 48.3231C91.0758 48.3206 91.5488 48.3683 91.8427 48.7059C92.0163 48.9109 92.1977 49.2319 92.1565 49.5124C92.0394 50.3089 91.4805 50.5552 90.7603 50.5726C89.9372 50.5925 89.1392 50.5767 88.3274 50.5761L83.442 50.5744H78.5744C77.794 50.5749 76.7286 50.6181 75.9797 50.5626C76.0478 51.993 75.9994 53.8483 76.0008 55.3026L79.2312 55.2846C81.6107 55.2923 81.288 57.731 78.9534 57.5088C78.0508 57.423 76.9161 57.5927 75.9751 57.486C76.0547 58.7765 76.0044 60.8773 75.9907 62.2007C76.4915 62.1444 78.1318 62.1782 78.7324 62.1873C80.1609 62.2088 81.7279 62.1378 83.1326 62.1937C84.0627 59.4844 86.5044 58.1127 89.2542 59.3364C91.3844 60.3348 92.4282 63.0845 91.3075 65.1854C89.3642 68.8288 84.3879 68.3242 83.122 64.3843C82.376 64.4201 81.409 64.3957 80.6495 64.3961L75.9928 64.3982C75.9985 65.2289 75.8865 65.9998 75.4721 66.7342C74.4995 68.5877 72.9099 69.4163 70.8615 69.541C71.0328 70.5791 70.7735 71.9504 70.9841 72.9756C71.1529 73.5466 71.5537 74.0115 71.8389 74.5248C72.8912 76.4188 74.0115 78.2758 75.0609 80.1711C75.4215 80.8227 75.8619 81.4291 76.1295 82.1295C76.3223 82.0788 76.5184 82.0409 76.7162 82.016C77.7159 81.8978 78.8066 82.2083 79.5905 82.8429C80.4235 83.5129 80.9531 84.489 81.0608 85.5527C81.1633 86.5897 80.8547 87.6255 80.2017 88.4376C79.5259 89.2658 78.5475 89.7898 77.4836 89.8936C73.8282 90.2225 71.7579 86.0181 74.2049 83.2012C74.049 82.7927 73.3092 81.6374 73.0528 81.1864L69.7589 75.4533C69.4871 74.9782 68.7506 73.8724 68.7036 73.3838C68.591 72.2134 68.6471 70.6886 68.6591 69.5033C68.3931 69.5255 68.114 69.5311 67.8468 69.5249C66.5503 69.494 65.2202 69.5781 63.928 69.5149C64.0784 70.3347 63.9628 71.3574 64.0032 72.2113C64.0374 72.9362 64.0407 73.4629 63.578 74.0735C63.0737 74.7389 61.8618 74.2168 61.7918 73.5532C61.6558 72.265 61.7115 70.8233 61.7372 69.5097C60.714 69.5727 59.6234 69.4903 58.5924 69.5307C58.094 69.5501 57.5239 69.5452 57.0303 69.5114C57.0744 70.5101 57.049 71.6664 57.049 72.6755L57.0487 78.2205L57.0523 82.3234C57.0531 83.0845 57.0661 83.8645 57.0311 84.6232C57.0198 84.9463 56.9139 85.1704 56.6614 85.3723C56.0848 85.8333 55.4589 85.7617 55.0077 85.1735C54.8343 84.9475 54.8148 84.6478 54.8078 84.3687C54.7796 83.2395 54.7931 82.1057 54.7933 80.9757L54.7941 74.728L54.7898 71.3597C54.7881 70.8972 54.7512 69.9211 54.8202 69.5079C54.343 69.5526 54.022 69.5493 53.5489 69.512C53.5956 70.5521 53.5693 71.753 53.569 72.8037L53.5695 78.1948L53.5701 82.3771C53.5701 83.8359 53.6227 85.3042 53.3184 86.7386C52.951 88.4699 52.0584 90.3497 50.8815 91.688C48.8241 94.0551 45.905 95.5004 42.7751 95.7017C39.7672 95.8632 36.818 94.8245 34.5751 92.8139C32.8391 91.2578 31.0463 88.4198 30.9227 86.0593C30.5809 86.1846 30.2305 86.2849 29.8743 86.36C23.2226 87.7605 16.341 83.029 15.1002 76.4008C14.633 73.9051 14.7666 71.5444 15.722 69.1711C15.9018 68.7244 16.1369 68.1652 16.4025 67.7741C15.3941 67.4784 13.9772 66.8881 13.0301 66.4122C8.52624 64.1337 5.11136 60.16 3.53598 55.3646C1.93103 50.5403 2.33275 45.2734 4.65078 40.7482C6.72489 36.6589 10.2061 33.4563 14.4538 31.7298C15.0088 31.5012 15.7878 31.2628 16.3719 31.0716C15.958 30.3641 15.5854 29.4344 15.3486 28.6509C14.3807 25.4113 14.7594 21.9183 16.3992 18.9615C19.1023 13.9905 24.5127 11.6103 30.0288 12.5616C30.4254 12.63 30.5252 12.6173 30.9009 12.8218C31.1273 10.8556 32.1169 8.78555 33.3834 7.27729C35.4597 4.80459 38.0583 3.48451 41.2645 3.21011ZM17.8991 69.9107C16.8805 72.4947 16.7968 75.4265 17.9097 77.995C19.0502 80.6431 21.2101 82.7196 23.9011 83.755C25.4141 84.351 27.9579 84.5996 29.546 84.2106C30.2817 84.0304 31.1928 83.6933 31.8655 83.5628C32.9068 83.8517 32.9886 84.3078 33.0796 85.3004C33.6557 91.5843 40.4663 95.4846 46.2586 92.5303C48.4751 91.415 50.1488 89.4541 50.9025 87.0903C51.4217 85.4728 51.321 83.7498 51.3196 82.0655L51.3161 78.1321L51.3154 69.2556L51.3159 40.2563L51.3165 23.0147L51.3179 17.4172C51.3188 14.8953 51.5134 12.7217 50.2848 10.3926C48.6143 7.22609 45.0784 5.10424 41.4546 5.48154C38.7141 5.75584 36.7925 6.75273 35.0403 8.8965C34.0242 10.1274 33.3662 11.6141 33.1384 13.1939C32.9837 14.336 33.1757 15.0874 31.8274 15.4274C31.0008 15.1714 30.1471 14.8677 29.2892 14.7211C21.3773 13.3691 14.989 21.1758 17.7343 28.6724C17.9933 29.3797 18.3971 30.0096 18.667 30.6912C19.3699 30.4605 20.2382 30.44 20.9591 30.3954C21.6349 30.3534 22.5903 30.3755 22.778 31.1806C23.1462 32.7598 21.2907 32.595 20.4022 32.66C19.7071 32.7153 19.0156 32.8106 18.3314 32.946C13.713 33.8855 9.69984 36.718 7.26751 40.7552C2.41721 48.7369 5.0916 59.3065 13.1306 63.9889C14.0966 64.5515 15.0607 65.0688 16.121 65.4336C16.5779 65.597 17.2987 65.7643 17.7005 65.9414C19.6734 63.3695 22.6922 61.7853 25.8629 61.3182C26.3865 61.241 27.4391 61.1724 27.8643 61.2948C28.6258 61.5141 28.9794 62.4981 28.3839 63.0859C27.7356 63.7261 26.348 63.4415 25.5054 63.6948C21.8368 64.5363 19.4356 66.5774 17.8991 69.9107ZM53.5655 61.194C54.3494 61.1285 55.9635 61.1867 56.8238 61.1869L63.5701 61.1865C64.348 61.1869 65.1274 61.1944 65.9053 61.1966C66.4968 61.1983 66.759 61.1935 67.2317 60.8096C67.3849 60.5904 67.5415 60.409 67.5537 60.1449C67.5749 59.68 67.5664 59.1995 67.5653 58.7345L67.5606 55.9975L67.5604 47.0974L67.5614 41.3386C67.5633 40.6123 67.6635 39.4436 67.5363 38.7727C67.4848 38.5022 67.2588 38.1191 67.0119 37.9842C66.246 37.5653 55.374 37.9621 53.5432 37.802C53.6007 38.733 53.5682 39.9309 53.568 40.8784L53.5672 46.1847L53.5655 61.194ZM92.3095 26.6123C91.3692 26.6924 90.6715 27.5186 90.7498 28.4589C90.8281 29.3992 91.653 30.0986 92.5935 30.0218C93.5363 29.945 94.238 29.1175 94.1593 28.1748C94.0808 27.232 93.2521 26.5321 92.3095 26.6123ZM87.4186 61.2708C86.2525 61.2638 85.3039 62.2078 85.305 63.374C85.3064 64.5399 86.2569 65.482 87.4231 65.4725C88.5776 65.4632 89.5083 64.5241 89.5071 63.3695C89.5058 62.215 88.5732 61.2776 87.4186 61.2708ZM53.5722 35.6209L62.5302 35.6172C63.9614 35.6159 65.6466 35.5478 67.0554 35.6911C67.5167 35.7379 68.418 36.2141 68.7409 36.5593C69.7085 37.5932 69.8113 38.3504 69.8175 39.6801L69.8154 54.0819L69.8175 58.1964C69.8177 59.7071 70.0163 61.2165 68.8161 62.3625C68.1258 63.0219 67.2712 63.345 66.3198 63.3705C64.8842 63.409 63.4425 63.386 62.0058 63.3833L53.719 63.3974C53.6641 63.397 53.6136 63.3929 53.5589 63.3891C53.5693 64.656 53.6045 66.1297 53.5655 67.3814C54.4714 67.304 56.446 67.3763 57.4524 67.3746L67.0647 67.3728L69.5901 67.3785C70.8201 67.3837 71.947 67.4902 72.9101 66.5487C73.3034 66.1643 73.6294 65.5918 73.7035 65.0392C73.7961 63.8756 73.7582 62.5826 73.7559 61.4098L73.7518 54.6206L73.7522 41.1471C73.7518 38.9755 73.7557 36.8039 73.7553 34.6323C73.7551 33.7057 73.5474 33.045 72.8792 32.3883C71.9764 31.501 70.8375 31.6182 69.6712 31.6203L67.1652 31.6257L57.9843 31.6269L55.1077 31.6277C54.6232 31.6284 54.0147 31.6551 53.5432 31.6143C53.6067 32.619 53.5937 34.5752 53.5722 35.6209ZM76.7814 84.3562C76.1765 84.4795 75.6848 84.9189 75.4944 85.5061C75.3039 86.0933 75.4443 86.7376 75.8618 87.1926C76.279 87.6473 76.9088 87.8424 77.5103 87.7032C78.4234 87.4919 78.9971 86.5858 78.7975 85.6701C78.5982 84.7541 77.6998 84.1686 76.7814 84.3562ZM69.6522 15.9272C68.4893 16.0066 67.6142 17.0185 67.7031 18.1807C67.7921 19.3428 68.8111 20.2096 69.9726 20.1112C71.1204 20.0137 71.975 19.009 71.8871 17.8603C71.7993 16.7116 70.8015 15.8487 69.6522 15.9272Z" fill="#D9B95A"/>
<path d="M41.2192 59.2195C42.6798 59.2118 42.7549 61.0348 42.8761 62.0984C43.0312 63.4589 42.8121 65.553 41.9091 66.6432C43.124 67.1333 44.2681 67.7832 45.3115 68.5756C46.8425 69.7354 48.1173 71.1434 48.4319 73.2116C48.5914 74.2605 48.498 77.5216 46.3722 76.1599C45.8591 75.8312 46.2216 74.5214 46.1874 73.8798C46.098 72.2148 45.1019 71.3863 43.9637 70.3344C43.4165 70.0262 42.8133 69.5579 42.2351 69.2595C41.6297 68.9472 41.0672 68.7289 40.4734 68.3847C39.9241 68.9619 38.6446 69.6942 37.7954 70.0488C36.5426 70.5291 34.7086 71.3586 33.362 71.143C32.8821 71.0661 32.5225 70.1128 32.7889 69.6408C33.2074 68.8991 34.919 68.6928 35.7162 68.4265C38.9366 67.3816 41.242 65.4018 40.5403 61.7322C40.3421 60.6962 39.9169 59.6704 41.2192 59.2195Z" fill="#D9B95A"/>
<path d="M16.2446 42.7899C16.297 42.7821 16.3497 42.7763 16.4025 42.7728C18.0571 42.6479 19.1657 47.0861 19.2235 48.3296C19.7044 48.4679 20.1356 48.6736 20.5909 48.8832C22.4383 49.7336 24.1621 51.2745 24.3309 53.4225C24.3827 54.0813 24.4179 54.9557 23.972 55.492C23.5942 55.9468 22.7923 55.9909 22.3584 55.5937C21.9576 55.2153 22.069 54.3593 22.0607 53.8411C22.0458 52.9238 21.6306 52.4021 20.9933 51.7892C20.4533 51.2658 19.2782 50.7621 18.6134 50.437C18.2021 51.0993 17.5248 51.6432 16.8167 51.9162C15.7312 52.3347 12.8063 53.2736 12.33 51.6401C11.9256 50.2533 13.8339 50.3119 14.6503 50.1982C15.0191 50.1454 15.3813 50.0546 15.7313 49.927C16.1122 49.7864 16.7251 49.4691 16.8376 49.0746C17.2756 47.4388 16.2219 45.7976 15.5679 44.3692C15.2302 43.6318 15.5226 43.0813 16.2446 42.7899Z" fill="#D9B95A"/>
<path d="M38.0572 18.613C40.3687 18.6228 39.001 21.9029 38.5387 23.0501C38.3854 23.43 38.0261 23.9302 37.7879 24.2619C39.2528 25.8375 40.8277 27.943 40.5653 30.2813C40.4379 31.4169 39.055 33.5669 37.8093 32.0597C37.2782 31.4167 38.1858 30.4708 38.4004 29.6473L38.2028 28.8209C37.8654 27.7667 36.783 26.5218 36.1242 25.6511C36.0314 25.7148 35.933 25.7701 35.8303 25.8163C34.7344 26.3167 31.0806 27.1659 30.4818 25.7287C30.3704 25.4564 30.3749 25.1505 30.4942 24.8816C30.8445 24.0789 31.4906 24.2336 32.1716 24.2572C34.6796 24.3444 36.5372 23.3194 36.9406 20.7035C37.0771 19.8183 37.115 18.9879 38.0572 18.613Z" fill="#D9B95A"/>
<path d="M43.1688 42.5938C43.8183 42.6742 44.5038 43.2214 44.3286 43.9374C44.2075 44.3249 43.966 44.7685 43.786 45.1339C42.191 48.3719 41.486 52.3406 45.0765 54.5072C45.6262 54.8858 46.6605 55.171 46.9749 55.7919C47.3632 56.5582 46.628 57.1266 46.0373 57.3794C45.5427 57.4006 44.3872 56.7303 43.9678 56.4646C42.1664 55.3205 40.8562 53.8908 40.3935 51.7275C39.7804 48.8596 40.7781 45.8462 42.1641 43.3343C42.3971 42.912 42.7063 42.6902 43.1688 42.5938Z" fill="#D9B95A"/>
<path d="M33.2651 34.7286C34.2215 34.6358 36.1135 34.706 35.2819 36.4269C34.9518 37.1098 33.5256 36.8561 32.8469 37.027C32.192 37.192 31.4199 37.3244 30.8333 37.7641C29.7102 38.5501 29.0199 39.7569 28.6195 41.0387C28.396 41.7537 28.3575 42.4355 27.9284 43.0525C27.6365 43.2813 27.5025 43.3433 27.1482 43.4497C25.7611 43.195 25.9388 42.1903 26.2124 41.1212C27.1482 37.4644 29.3883 35.0003 33.2651 34.7286Z" fill="#D9B95A"/>
<path d="M42.1073 79.3455C43.1383 79.2193 44.9803 79.2806 45.9726 79.6135C46.0677 79.6456 46.3361 79.8952 46.4241 79.9765C46.5188 80.2388 46.5554 80.4407 46.6113 80.7108C46.5842 80.787 46.5544 80.862 46.5223 80.9359C46.0078 82.1073 44.8505 81.5608 43.8818 81.5467C42.177 81.5218 39.9125 81.4239 39.1008 83.2593C38.8937 83.8444 38.9627 84.5142 38.6454 85.0214C38.0499 86.0856 36.6328 85.5713 36.6206 84.4885C36.5806 80.9578 39.1565 79.6346 42.1073 79.3455Z" fill="#D9B95A"/>
<path d="M25.8516 72.7104C27.7512 72.8245 26.691 74.8531 26.5015 75.8709C26.325 76.818 26.1664 78.164 27.1593 78.709C27.8158 79.0695 29.1434 79.0795 29.4037 79.9121C29.5736 80.7316 28.9858 81.2022 28.3125 81.3561C24.1584 80.8809 23.4681 77.6688 24.5809 74.1643C24.8348 73.3652 24.9724 72.9173 25.8516 72.7104Z" fill="#D9B95A"/>
</svg>
